<svg width="68" height="68" viewBox="0 0 68 68" fill="none" xmlns="http://www.w3.org/2000/svg">
<g clip-path="url(#clip0_51_822)">
<path d="M24.7299 27.4015C27.9751 26.929 30.1006 23.0855 29.4786 18.8167C28.8556 14.5483 25.7207 11.4718 22.4763 11.9447C19.2312 12.4189 17.1057 16.2616 17.7279 20.5304C18.3507 24.7989 21.4856 27.8753 24.7299 27.4015Z" fill="#633E33"/>
<path d="M17.5099 38.6507C20.2109 36.8731 20.5054 32.5527 18.1676 28.9979C15.8298 25.4447 11.7447 24.005 9.04296 25.7812C6.34261 27.5594 6.04849 31.8803 8.38631 35.4343C10.7242 38.9874 14.8088 40.4274 17.5099 38.6507Z" fill="#E69B41"/>
<path d="M39.5104 26.5934C42.7879 26.7108 45.568 23.3108 45.7217 19.0003C45.8742 14.6877 43.3424 11.0994 40.0647 10.9822C36.7881 10.8662 34.0075 14.2673 33.8542 18.5776C33.7016 22.8895 36.2339 26.4774 39.5104 26.5934Z" fill="#E69B41"/>
<path d="M54.9293 23.2699C52.0503 21.7988 48.1467 23.6749 46.2104 27.462C44.2741 31.2508 45.0386 35.5134 47.9175 36.9854C50.7961 38.4567 54.7 36.5806 56.6361 32.7927C58.5717 29.0051 57.8079 24.7421 54.9293 23.2699Z" fill="#E69B41"/>
<path d="M38.6099 32.6636C37.1519 30.7017 34.7981 29.466 32.1808 29.6089C29.5643 29.7522 27.3591 31.2376 26.1239 33.3458C24.755 34.9953 15.559 41.8412 15.5029 49.0303C15.4635 54.1079 20.1154 57.9853 25.185 57.7078C29.0383 57.4969 31.3808 56.0216 33.6194 55.8986C35.8578 55.7758 38.3475 56.9873 42.2005 56.7763C47.2701 56.499 51.4715 52.138 50.8783 47.0947C50.0388 39.9546 40.1509 34.1538 38.6099 32.6636Z" fill="#E69B41"/>
<path d="M36.916 36.8723C37.378 37.5417 37.6486 38.2622 37.7277 39.0339C37.7992 39.7946 37.6341 40.5647 37.2325 41.3442C36.8309 42.1237 36.1582 42.8392 35.2146 43.4906L33.4699 44.6949L36.3331 48.8427L33.5185 50.7855L25.5425 39.2311L30.1017 36.0839C31.0234 35.4476 31.9123 35.0689 32.7684 34.9478C33.6245 34.8267 34.4048 34.9361 35.1093 35.2761C35.8139 35.616 36.4161 36.1481 36.916 36.8723ZM33.4554 41.3998C33.993 41.0287 34.3064 40.626 34.3956 40.1918C34.4847 39.7577 34.3702 39.3102 34.0521 38.8493C33.7339 38.3884 33.3561 38.1227 32.9185 38.0521C32.481 37.9815 31.9934 38.1318 31.4557 38.503L29.925 39.5596L31.9247 42.4565L33.4554 41.3998Z" fill="#F4F1DE"/>
</g>
<defs>
<clipPath id="clip0_51_822">
<rect width="50" height="50" fill="white" transform="translate(0 23.7773) rotate(-28.3942)"/>
</clipPath>
</defs>
</svg>
