<svg width="24" height="24" viewBox="0 0 24 24" fill="none" xmlns="http://www.w3.org/2000/svg">
<path d="M12.0079 7.00621C9.28218 7.00621 7.0836 9.17043 7.0836 11.8536C7.0836 14.5367 9.28218 16.7009 12.0079 16.7009C14.7336 16.7009 16.9322 14.5367 16.9322 11.8536C16.9322 9.17043 14.7336 7.00621 12.0079 7.00621ZM12.0079 15.005C10.2465 15.005 8.80646 13.5917 8.80646 11.8536C8.80646 10.1154 10.2422 8.70215 12.0079 8.70215C13.7736 8.70215 15.2093 10.1154 15.2093 11.8536C15.2093 13.5917 13.7693 15.005 12.0079 15.005ZM18.2822 6.80793C18.2822 7.43652 17.7679 7.93856 17.1336 7.93856C16.495 7.93856 15.985 7.4323 15.985 6.80793C15.985 6.18355 16.4993 5.6773 17.1336 5.6773C17.7679 5.6773 18.2822 6.18355 18.2822 6.80793ZM21.5436 7.95543C21.4707 6.4409 21.1193 5.09934 19.9922 3.99402C18.8693 2.88871 17.5065 2.54277 15.9679 2.46684C14.3822 2.37824 9.62932 2.37824 8.04361 2.46684C6.50932 2.53855 5.14646 2.88449 4.01932 3.9898C2.89218 5.09512 2.54503 6.43668 2.46789 7.95121C2.37789 9.51215 2.37789 14.1907 2.46789 15.7517C2.54075 17.2662 2.89218 18.6078 4.01932 19.7131C5.14646 20.8184 6.50503 21.1643 8.04361 21.2403C9.62932 21.3289 14.3822 21.3289 15.9679 21.2403C17.5065 21.1686 18.8693 20.8226 19.9922 19.7131C21.115 18.6078 21.4665 17.2662 21.5436 15.7517C21.6336 14.1907 21.6336 9.51637 21.5436 7.95543ZM19.495 17.4265C19.1607 18.2534 18.5136 18.8904 17.6693 19.2237C16.405 19.7173 13.405 19.6034 12.0079 19.6034C10.6107 19.6034 7.60646 19.7131 6.34646 19.2237C5.50646 18.8946 4.85932 18.2576 4.52075 17.4265C4.01932 16.182 4.13503 13.2289 4.13503 11.8536C4.13503 10.4782 4.0236 7.5209 4.52075 6.28059C4.85503 5.45371 5.50218 4.81668 6.34646 4.4834C7.61075 3.9898 10.6107 4.10371 12.0079 4.10371C13.405 4.10371 16.4093 3.99402 17.6693 4.4834C18.5093 4.81246 19.1565 5.44949 19.495 6.28059C19.9965 7.52512 19.8807 10.4782 19.8807 11.8536C19.8807 13.2289 19.9965 16.1862 19.495 17.4265Z" fill="white"/>
</svg>
