<svg width="40" height="33" viewBox="0 0 40 33" fill="none" xmlns="http://www.w3.org/2000/svg">
<path d="M0.837145 13.3378C2.96159 5.74 8.2025 0.224609 13.2969 0.224609C13.7061 0.224609 14.1149 0.260226 14.5131 0.330651C14.739 0.370315 14.9365 0.50307 15.0587 0.695727C15.1805 0.889597 15.2149 1.12516 15.153 1.34533L14.1043 5.09647C14.0032 5.45871 13.6539 5.70358 13.2908 5.68698L13.2074 5.68536C11.3181 5.68536 7.86535 8.51693 6.10517 14.8102C6.03555 15.06 5.96958 15.3153 5.90604 15.5817C7.88195 14.6038 10.2391 14.3776 12.3737 14.9721C17.1892 16.3195 20.0102 21.3326 18.6641 26.1474C17.5729 30.0487 13.9841 32.7742 9.93679 32.7742C9.11234 32.7742 8.28911 32.6605 7.48976 32.4367C4.31422 31.5491 1.92669 28.9126 0.766722 25.0145C-0.280325 21.4978 -0.254019 17.2419 0.837145 13.3378Z" fill="#E69B41"/>
<path d="M34.2963 0.224609C34.7046 0.224609 35.1138 0.259417 35.5117 0.329842C35.7371 0.368697 35.935 0.502261 36.0569 0.694917C36.1787 0.888788 36.2131 1.12435 36.1516 1.34452L35.1025 5.09566C35.0013 5.4579 34.6585 5.70277 34.289 5.68617L34.2064 5.68455C32.3171 5.68455 28.8639 8.51612 27.1037 14.8094C27.0337 15.0608 26.9677 15.3162 26.9046 15.5809C28.8813 14.603 31.2377 14.3768 33.3723 14.9713C38.187 16.3187 41.0088 21.3318 39.6618 26.1466C38.5707 30.0479 34.9819 32.7734 30.9345 32.7734C30.1101 32.7734 29.2869 32.6597 28.4871 32.4358C25.312 31.5483 22.9244 28.9118 21.7641 25.0137C20.7174 21.4969 20.7433 17.2407 21.8349 13.3362C23.9606 5.73919 29.2007 0.224609 34.2963 0.224609Z" fill="#E69B41"/>
</svg>
