<svg width="24" height="24" viewBox="0 0 24 24" fill="none" xmlns="http://www.w3.org/2000/svg">
<path d="M20.7034 7.72878C20.7164 7.90999 20.7164 8.09124 20.7164 8.27244C20.7164 13.7996 16.5095 20.1681 8.82069 20.1681C6.4519 20.1681 4.25141 19.482 2.40039 18.2912C2.73695 18.33 3.06052 18.343 3.41003 18.343C5.36457 18.343 7.16383 17.6829 8.60064 16.5567C6.76256 16.5179 5.2222 15.3141 4.69149 13.6572C4.95039 13.696 5.20926 13.7219 5.48111 13.7219C5.85648 13.7219 6.23188 13.6701 6.58135 13.5796C4.66563 13.1912 3.22878 11.5085 3.22878 9.47624V9.42449C3.78536 9.73515 4.43262 9.92931 5.11861 9.95517C3.99247 9.20439 3.25468 7.92294 3.25468 6.47318C3.25468 5.69655 3.46175 4.98462 3.82421 4.36329C5.88234 6.90035 8.976 8.55717 12.445 8.73842C12.3803 8.42776 12.3414 8.10419 12.3414 7.78057C12.3414 5.47649 14.2054 3.59961 16.5224 3.59961C17.7262 3.59961 18.8135 4.10443 19.5772 4.91991C20.5221 4.7387 21.4282 4.38919 22.2308 3.91027C21.9201 4.8811 21.26 5.69659 20.3927 6.21432C21.2341 6.12375 22.0496 5.8907 22.8003 5.56713C22.2309 6.39552 21.5189 7.13331 20.7034 7.72878Z" fill="white"/>
</svg>
