<svg width="100" height="100" viewBox="0 0 100 100" fill="none" xmlns="http://www.w3.org/2000/svg">
<g clip-path="url(#clip0_51_533)">
<path d="M40.0622 29.8981C46.2212 32.1532 53.6163 27.4126 56.5817 19.3104C59.5454 11.2081 56.9558 2.81394 50.7977 0.560232C44.6374 -1.69172 37.2431 3.04754 34.2778 11.1497C31.314 19.252 33.9036 27.6462 40.0622 29.8981Z" fill="#CECAB6"/>
<path d="M16.6592 42.8204C23.1019 42.2618 27.7291 34.9407 26.9969 26.463C26.2631 17.9882 20.4451 11.5698 14.0023 12.1253C7.56014 12.6856 2.93319 20.0081 3.6662 28.4845C4.40018 36.9593 10.2172 43.3774 16.6592 42.8204Z" fill="#CECAB6"/>
<path d="M66.8354 42.5322C72.4901 45.8558 80.6151 42.5179 84.985 35.0802C89.3549 27.6376 88.3133 18.9165 82.6579 15.5931C77.0034 12.2726 68.8766 15.612 64.5075 23.0497C60.138 30.4909 61.1809 39.2118 66.8354 42.5322Z" fill="#CECAB6"/>
<path d="M97.1201 51.3504C93.4539 46.024 84.8017 45.6123 77.7931 50.4336C70.783 55.258 68.074 63.4848 71.7392 68.8127C75.4044 74.1389 84.0574 74.551 91.0662 69.7279C98.074 64.9051 100.785 56.6783 97.1201 51.3504Z" fill="#CECAB6"/>
<path d="M59.4746 52.3547C58.7754 47.5162 55.8094 43.1035 51.0686 40.8656C46.3287 38.6293 41.0363 39.1455 36.858 41.6799C32.2397 44.4826 29.2854 48.144 25.3076 49.7444C21.3305 51.3445 10.1904 46.5785 3.2545 59.1736C-1.64414 68.0697 2.85274 79.3158 12.0361 83.6492C19.0162 86.943 24.5406 86.5752 28.5963 88.4879C32.6514 90.4006 35.8795 94.9 42.859 98.1934C52.0422 102.527 63.5816 98.85 67.3346 89.4127C72.6482 76.052 61.8859 70.4826 60.592 66.3951C59.2992 62.3082 60.2479 57.6998 59.4746 52.3547Z" fill="#CECAB6"/>
</g>
<defs>
<clipPath id="clip0_51_533">
<rect width="100" height="100" fill="white"/>
</clipPath>
</defs>
</svg>
